# xmcd
#
# Track frame offsets:
#	150
#	12139
#	29668
#	50049
#	63187
#	78481
#	95895
#	110798
#	127293
#	146163
#	166162
#	185688
#	198438
#	210941
#	227364
#
# Disc length: 3236 seconds
#
# Revision: 1
# Processed by: cddbd v1.5.2PL0 Copyright (c) Steve Scherf et al.
# Submitted via: audiograbber 1.83.01
#
DISCID=da0ca20f
DTITLE=Steinar Engelbrektson Band - Rabalder
DYEAR=2008
DGENRE=Country
TTITLE0=Rabalder
TTITLE1=Slik det va
TTITLE2=Eg høyrer songen
TTITLE3=Eg song country
TTITLE4=Gull av gråstein
TTITLE5=Ho elska 'kje meg
TTITLE6=Ferdig å slå
TTITLE7=Veit du ka eg føle
TTITLE8=Små glimt
TTITLE9=Lykkeleg mann
TTITLE10=Ta det med ro
TTITLE11=Tenk på meg
TTITLE12=Fenderbender (Instrumental)
TTITLE13=Mens ej kan - Duett med Guro Håvik
TTITLE14=Om englar finns - Duett med Kathe
EXTD=P and C 2008 Tylden and Co. AS GTACD 8410
EXTT0=
EXTT1=
EXTT2=
EXTT3=
EXTT4=
EXTT5=
EXTT6=
EXTT7=
EXTT8=
EXTT9=
EXTT10=
EXTT11=
EXTT12=
EXTT13=
EXTT14=
PLAYORDER=
